<svg xmlns="http://www.w3.org/2000/svg" viewBox="60 80 500 840">
  <path
    fill="#000"
    d="M143 95
       H294
       Q319 95 336 131
       Q367 202 369 270
       Q364 322 332 367
       Q293 419 285 430
       V594
       Q290 650 330 694
       Q388 751 468 764
       H504
       Q541 764 541 801
       V856
       Q541 897 500 897
       H143
       Q80 897 80 836
       V684
       Q80 666 95 658
       V349
       Q95 335 80 324
       V158
       Q80 118 108 103
       Q124 95 143 95
       Z"
  />
</svg>
